<svg id="Layer_1" data-name="Layer 1" xmlns="http://www.w3.org/2000/svg" viewBox="0 0 366.31 213.26"><defs><style>.cls-1{font-size:45.64px;font-family:Avenir-Roman, Avenir;}.cls-1,.cls-2,.cls-4{fill:#19202c;}.cls-2{font-size:86.42px;font-family:Avenir-Black, Avenir;font-weight:800;}.cls-3{letter-spacing:-0.11em;}</style></defs><text class="cls-1" transform="translate(123.79 89.48)">Listen</text><text class="cls-2" transform="translate(0 173.77)"><tspan class="cls-3">T</tspan><tspan x="40.01" y="0">ogether</tspan></text><path class="cls-4" d="M152.9,202.09s.37,49.61,0,49.25S135.28,241,135.28,225.45,152.9,202.09,152.9,202.09Z" transform="translate(-69 -152.84)"/><path class="cls-4" d="M167.33,251.34H155.77V204.26a26.82,26.82,0,0,1,4.34-14.67c8.45-13,31.94-35.84,92.79-36.75v10.27s-79.77,5.24-85.31,35.16C165.34,210.45,166.82,227.42,167.33,251.34Z" transform="translate(-69 -152.84)"/><rect class="cls-4" x="100.89" y="49.25" width="8.89" height="49.25" rx="1.4"/><path class="cls-4" d="M352.9,202.09s-.37,49.61,0,49.25,17.62-10.39,17.62-25.89S352.9,202.09,352.9,202.09Z" transform="translate(-69 -152.84)"/><path class="cls-4" d="M338.47,251.34H350V204.26a26.82,26.82,0,0,0-4.34-14.67c-8.45-13-31.94-35.84-92.79-36.75v10.27s79.77,5.24,85.31,35.16C340.46,210.45,339,227.42,338.47,251.34Z" transform="translate(-69 -152.84)"/><rect class="cls-4" x="327.01" y="202.09" width="8.89" height="49.25" rx="1.4" transform="translate(593.92 300.59) rotate(-180)"/></svg>